<?xml version="1.0" encoding="UTF-8" standalone="no"?>
<!-- Created with Inkscape (http://www.inkscape.org/) -->

<svg
   width="24.066mm"
   height="25.671mm"
   viewBox="0 0 24.066 25.670999"
   version="1.1"
   id="svg1"
   inkscape:version="1.3.2 (091e20e, 2023-11-25, custom)"
   sodipodi:docname="WhiteBishop.svg"
   xmlns:inkscape="http://www.inkscape.org/namespaces/inkscape"
   xmlns:sodipodi="http://sodipodi.sourceforge.net/DTD/sodipodi-0.dtd"
   xmlns="http://www.w3.org/2000/svg"
   xmlns:svg="http://www.w3.org/2000/svg">
  <sodipodi:namedview
     id="namedview1"
     pagecolor="#ffffff"
     bordercolor="#000000"
     borderopacity="0.25"
     inkscape:showpageshadow="2"
     inkscape:pageopacity="0.0"
     inkscape:pagecheckerboard="0"
     inkscape:deskcolor="#d1d1d1"
     inkscape:document-units="mm"
     inkscape:zoom="16.549473"
     inkscape:cx="64.08059"
     inkscape:cy="78.461713"
     inkscape:window-width="1920"
     inkscape:window-height="1017"
     inkscape:window-x="-8"
     inkscape:window-y="-8"
     inkscape:window-maximized="1"
     inkscape:current-layer="layer1" />
  <defs
     id="defs1" />
  <g
     inkscape:label="Ebene 1"
     inkscape:groupmode="layer"
     id="layer1"
     transform="translate(-63.764586,-42.333335)">
    <path
       d="m 75.772721,56.969419 c -1.594061,0 -2.83501,-0.06832 -3.723216,-0.204946 0.159371,0.318797 0.239075,0.592058 0.239101,0.819785 -2.6e-5,0.341577 -0.06834,0.626216 -0.204941,0.853943 0.660347,-0.204946 1.890025,-0.307419 3.689085,-0.307419 1.799061,0 3.028686,0.102475 3.689086,0.307419 -0.136658,-0.227719 -0.20497,-0.512366 -0.204944,-0.853943 -2.6e-5,-0.273261 0.06829,-0.546523 0.204944,-0.819785 -1.070293,0.136628 -2.29997,0.204946 -3.689086,0.204946 m 0,-12.365037 c -0.478234,0 -0.808434,0.216326 -0.990573,0.648997 -0.04557,0.113858 -0.06834,0.227721 -0.06832,0.341577 -2.6e-5,0.500988 0.25046,0.831162 0.75147,0.990573 0.09106,0.02278 0.193535,0.03416 0.307419,0.03416 0.523717,0 0.865294,-0.23911 1.024732,-0.717312 0.02273,-0.09109 0.03413,-0.193564 0.03416,-0.30742 -3.4e-5,-0.455427 -0.227748,-0.762846 -0.683154,-0.922258 -0.136657,-0.04554 -0.261906,-0.06831 -0.375735,-0.06831 m 0,14.516894 c -0.865346,0 -1.981173,0.0797 -3.347508,0.239104 -0.387112,0.04555 -0.614839,0.261877 -0.683154,0.648996 0,0.273262 0.626189,0.444051 1.878674,0.512366 -0.113888,-0.02278 -0.06834,-0.03416 0.136633,-0.03416 h 2.015305 c 2.664354,0 3.996531,-0.159401 3.996531,-0.478208 -3.2e-5,-0.523743 -0.6604,-0.808408 -1.981147,-0.853943 h -0.990574 c -0.296068,0 -0.546549,-0.01138 -0.751469,-0.03416 h -0.273258 m -0.03416,-3.142457 c 2.550424,0 4.110302,-0.239101 4.679685,-0.717311 0.387086,-0.296043 0.671724,-1.08167 0.853943,-2.356882 -0.113887,-1.138582 -0.853969,-2.231628 -2.220251,-3.279246 -1.275239,-1.001951 -2.391066,-1.559878 -3.347508,-1.673728 -0.888127,0.113861 -1.969797,0.671777 -3.24485,1.673728 -1.343528,1.047512 -2.072217,2.140558 -2.186094,3.279246 0.159406,1.184142 0.409893,1.935612 0.75147,2.254408 0.09109,0.09109 0.193561,0.170789 0.307419,0.239102 0.569304,0.387138 2.038059,0.580681 4.406371,0.580681 m -0.580681,-1.673728 v -1.502939 h -1.161362 v -1.332151 h 1.161362 V 50.00122 h 1.229677 v 1.468781 h 1.161363 v 1.332151 h -1.161363 v 1.502939 h -1.229677 m 0.546523,6.968067 c -0.20497,0 -0.808434,0.398515 -1.810358,1.195519 -0.705961,0.478208 -1.844516,0.762847 -3.415771,0.853943 -1.138581,0 -2.049462,0.05693 -2.732617,0.170789 -0.728689,0.159401 -1.093046,0.466831 -1.093046,0.922258 0.06831,0.455427 0.307419,0.683154 0.717312,0.683154 l 1.810358,-0.273262 c 1.184116,0 2.425197,-0.159401 3.723217,-0.478208 1.480132,-0.387111 2.436548,-1.00195 2.869141,-1.844516 0.614813,1.206924 2.208821,1.935612 4.782079,2.186094 l 0.888101,0.136633 h 0.8881 l 1.844516,0.273262 c 0.409867,0 0.64897,-0.227719 0.717312,-0.683155 -2.6e-5,-0.455427 -0.364384,-0.762846 -1.093046,-0.922258 L 80.144993,63.22015 C 78.983604,63.12906 77.867777,62.673626 76.797484,61.853841 76.31925,61.466703 75.954892,61.27316 75.704438,61.27316 m 0.06832,2.9718 c -0.888127,0.888101 -2.231655,1.434624 -4.030663,1.63957 -0.728689,0.06831 -2.003927,0.227717 -3.82561,0.478208 -0.478208,0.09109 -0.75147,0.30742 -0.819785,0.648997 -0.432673,-0.113858 -1.070266,-0.819785 -1.912832,-2.117778 -0.204946,-0.318797 -0.352954,-0.535146 -0.44405,-0.648997 0.75147,-1.434623 1.685105,-2.151935 2.800879,-2.151935 l 2.015305,0.102473 c 0.933635,0 2.026682,-0.216334 3.279246,-0.648997 C 71.218458,61.341558 70.41005,60.85197 70.41005,60.07772 l 0.683155,-2.595986 v -0.06832 c -1.366309,-1.502939 -2.049463,-2.914914 -2.049463,-4.235449 0,-1.50294 0.740093,-2.869142 2.220251,-4.098925 1.297967,-1.093047 2.254382,-1.673728 2.869142,-1.742044 -0.501015,-0.614838 -0.751496,-1.252431 -0.75147,-1.912831 -2.9e-5,-1.047512 0.523716,-1.707886 1.571255,-1.981147 0.25046,-0.06829 0.523716,-0.102447 0.819785,-0.102476 1.115801,2.9e-5 1.84449,0.42127 2.186093,1.263835 l 0.170789,0.717312 v 0.102468 c -2.7e-5,0.705935 -0.239136,1.343528 -0.717312,1.912832 0.614812,0.06832 1.582605,0.660373 2.903537,1.7762 1.457352,1.206897 2.186067,2.561828 2.186094,4.064794 -3e-5,1.275212 -0.683181,2.687108 -2.049463,4.23545 -2.6e-5,0.318823 0.113832,0.77425 0.341577,1.366308 0.22769,0.728689 0.341551,1.161362 0.341577,1.297993 -2.6e-5,0.77425 -0.808434,1.263835 -2.425197,1.468782 1.229651,0.432673 2.322698,0.648996 3.279246,0.648996 l 2.015304,-0.102473 c 1.115801,0 2.049437,0.717312 2.80088,2.151936 l -1.161362,1.7762 c -0.387139,0.500989 -0.785654,0.831162 -1.19552,0.990574 -0.09112,-0.455427 -0.751496,-0.740093 -1.981147,-0.853943 0.159371,0 -0.182203,-0.03416 -1.024732,-0.102473 -2.846387,-0.273262 -4.73657,-0.876723 -5.670285,-1.810358"
       id="path10"
       style="stroke-width:0.264583" />
  </g>
</svg>
