<?xml version="1.0" encoding="UTF-8" standalone="no"?>
<!-- Created with Inkscape (http://www.inkscape.org/) -->

<svg
   width="24.200001mm"
   height="25.799999mm"
   viewBox="0 0 24.200001 25.799998"
   version="1.1"
   id="svg1"
   inkscape:version="1.3.2 (091e20e, 2023-11-25, custom)"
   sodipodi:docname="Bishop.svg"
   xmlns:inkscape="http://www.inkscape.org/namespaces/inkscape"
   xmlns:sodipodi="http://sodipodi.sourceforge.net/DTD/sodipodi-0.dtd"
   xmlns="http://www.w3.org/2000/svg"
   xmlns:svg="http://www.w3.org/2000/svg">
  <sodipodi:namedview
     id="namedview1"
     pagecolor="#ffffff"
     bordercolor="#000000"
     borderopacity="0.25"
     inkscape:showpageshadow="2"
     inkscape:pageopacity="0.0"
     inkscape:pagecheckerboard="0"
     inkscape:deskcolor="#d1d1d1"
     inkscape:document-units="mm"
     inkscape:zoom="2.9255612"
     inkscape:cx="14.698035"
     inkscape:cy="43.923197"
     inkscape:window-width="1920"
     inkscape:window-height="1017"
     inkscape:window-x="-8"
     inkscape:window-y="-8"
     inkscape:window-maximized="1"
     inkscape:current-layer="layer1" />
  <defs
     id="defs1" />
  <g
     inkscape:label="Ebene 1"
     inkscape:groupmode="layer"
     id="layer1">
    <path
       d="m 10.443893,15.8801 c -1.1613884,0 -1.7420694,0.182173 -1.742043,0.546523 -3.17e-5,0.318796 0.5123392,0.512366 1.537097,0.580681 h 1.878673 c 2.277136,0 3.415771,-0.193564 3.415771,-0.580681 C 15.533359,16.062265 14.952683,15.8801 13.791348,15.8801 H 10.44384 m 0,-2.117778 c -1.0019768,0 -1.5599037,0.113863 -1.6737275,0.341577 -0.045572,0.04555 -0.068347,0.113861 -0.068315,0.204949 -3.17e-5,0.250489 0.2390749,0.398515 0.7173119,0.44405 0.5920316,0.06831 1.4915356,0.102473 2.6984846,0.102473 1.20695,0 2.117751,-0.03416 2.732617,-0.102473 0.4554,-0.04554 0.683127,-0.193561 0.683154,-0.44405 -3.2e-5,-0.364358 -0.580708,-0.546524 -1.742044,-0.546524 h -3.347507 m 6.353438,1.468782 0.683155,2.630143 c -2.7e-5,0.797005 -0.808435,1.263836 -2.425198,1.400466 1.184117,0.455428 2.28854,0.683154 3.313377,0.683154 0.136607,0 0.808382,-0.03416 2.015305,-0.102476 1.001924,0 1.821709,0.523743 2.459355,1.571255 0.09106,0.182171 0.204923,0.387112 0.341577,0.614839 l -1.229677,1.878674 c -0.364384,0.455427 -0.751496,0.751469 -1.161362,0.8881 -0.09112,-0.478208 -0.819812,-0.774224 -2.186094,-0.8881 l -0.819785,-0.06831 c -2.800879,-0.227716 -4.691062,-0.831162 -5.670285,-1.810359 -0.888127,0.933636 -2.2430573,1.468782 -4.0647929,1.605413 -0.4098925,0.04555 -0.9450391,0.11386 -1.6054121,0.204948 -1.662351,0.136629 -2.630144,0.375735 -2.903273,0.717312 -0.04554,0.06831 -0.07971,0.148016 -0.102476,0.239102 C 2.849608,24.544778 2.291681,23.975482 1.7679389,23.087381 1.5629899,22.723024 1.3238879,22.370069 1.0506269,22.028492 1.6654649,20.889911 2.325839,20.206757 3.031774,19.97903 3.282271,19.88794 3.555516,19.842399 3.851559,19.842399 l 2.015304,0.102476 c 1.047486,0 2.1519361,-0.227721 3.3133775,-0.683154 C 7.5634512,19.125093 6.755043,18.658259 6.755043,17.861255 c 0,-0.06831 0.182174,-0.648996 0.5465236,-1.742043 0.1138555,-0.364358 0.1707885,-0.614839 0.1707885,-0.75147 C 6.083266,13.682638 5.388735,12.191155 5.388735,10.893109 5.388735,9.3901699 6.128827,8.0239674 7.608986,6.7941841 8.929733,5.6783538 9.8861488,5.0862957 10.478128,5.0179803 9.9771126,4.4031415 9.7266316,3.7655222 9.726658,3.1051486 c -2.64e-5,-1.070266 0.53512,-1.7306396 1.605411,-1.9811471 0.25046,-0.068289 0.51234,-0.1024414 0.785628,-0.1024705 1.138555,2.91e-5 1.878647,0.4212696 2.220251,1.2638353 l 0.170788,0.7173119 v 0.1024731 c -2.6e-5,0.6376194 -0.250518,1.2752123 -0.751469,1.9128316 0.432646,0.1138582 1.081616,0.4668309 1.946989,1.058889 2.094971,1.4573779 3.142456,3.0628166 3.142456,4.8162101 -2.6e-5,1.320774 -0.68318,2.766748 -2.049462,4.338109 m -4.064794,-3.176588 v -1.571255 h 1.19552 V 9.1853556 h -1.19552 V 7.7165741 H 11.502779 V 9.1853556 H 10.30726 v 1.2979924 h 1.195519 v 1.571255 h 1.229677 M 12.117617,2.4221823 c -0.455453,0 -0.740119,0.204941 -0.853942,0.6148388 l -0.03415,0.2049409 c -2.9e-5,0.4326732 0.227687,0.7059348 0.683154,0.819785 0.06829,0.022773 0.136602,0.034155 0.204949,0.034155 0.569251,0 0.853916,-0.2846388 0.853942,-0.8539427 -2.9e-5,-0.5465233 -0.284691,-0.819785 -0.853942,-0.819785"
       id="path4"
       style="stroke-width:0.264583" />
  </g>
</svg>
