<?xml version="1.0" encoding="UTF-8" standalone="no"?>
<!-- Created with Inkscape (http://www.inkscape.org/) -->

<svg
   width="22.9mm"
   height="24.5mm"
   viewBox="0 0 22.9 24.5"
   version="1.1"
   id="svg1"
   inkscape:version="1.3.2 (091e20e, 2023-11-25, custom)"
   sodipodi:docname="King.svg"
   xmlns:inkscape="http://www.inkscape.org/namespaces/inkscape"
   xmlns:sodipodi="http://sodipodi.sourceforge.net/DTD/sodipodi-0.dtd"
   xmlns="http://www.w3.org/2000/svg"
   xmlns:svg="http://www.w3.org/2000/svg">
  <sodipodi:namedview
     id="namedview1"
     pagecolor="#ffffff"
     bordercolor="#000000"
     borderopacity="0.25"
     inkscape:showpageshadow="2"
     inkscape:pageopacity="0.0"
     inkscape:pagecheckerboard="0"
     inkscape:deskcolor="#d1d1d1"
     inkscape:document-units="mm"
     inkscape:zoom="4.1373683"
     inkscape:cx="-19.698512"
     inkscape:cy="69.005218"
     inkscape:window-width="1920"
     inkscape:window-height="1017"
     inkscape:window-x="-8"
     inkscape:window-y="-8"
     inkscape:window-maximized="1"
     inkscape:current-layer="layer1" />
  <defs
     id="defs1" />
  <g
     inkscape:label="Ebene 1"
     inkscape:groupmode="layer"
     id="layer1">
    <path
       d="m 12.33603,14.91848 c 0,0.4099 -0.284639,0.61484 -0.853943,0.61484 -0.637619,0 -0.956416,-0.20494 -0.956416,-0.61484 0,-1.89005 -0.6262164,-3.42714 -1.8786744,-4.61116 C 7.5311692,9.3053702 6.4495262,8.8043902 5.4021462,8.8043902 c -1.548474,0 -2.516293,0.61483 -2.903273,1.8445098 l -0.13663,0.92226 v 0.0683 c 0,0.91085 0.671777,2.17471 2.015304,3.79147 0.364358,0.4099 0.671777,0.72869 0.922258,0.95642 0.364358,0.29602 0.967793,0.44405 1.810359,0.44405 0.8881,0 2.3227244,-0.17079 4.3039778,-0.51237 2.003928,0.34158 3.449904,0.51237 4.338104,0.51237 0.86532,0 1.46879,-0.14802 1.81036,-0.44405 0.95642,-0.84257 1.75342,-1.8673 2.39104,-3.07419 0.36436,-0.68316 0.54653,-1.24106 0.54653,-1.67373 0,-1.43462 -0.649,-2.3340998 -1.94699,-2.6984898 -0.34158,-0.0911 -0.70594,-0.13663 -1.09305,-0.13663 -1.04749,0 -2.11778,0.51237 -3.210719,1.5370998 -1.275212,1.13858 -1.912832,2.66435 -1.912832,4.57702 m 7.412301,-3.27924 c 0,0.91085 -0.62621,1.98115 -1.87867,3.21072 l -0.8881,0.75147 -0.34158,0.20494 c -0.43267,0.0683 -0.8881,0.10247 -1.36631,0.10247 -1.411842,0 -2.117776,-0.28464 -2.117776,-0.85394 0.04554,-1.75342 0.569304,-3.1197 1.571256,-4.09893 0.86532,-0.86534 1.75342,-1.2979898 2.66435,-1.2979898 1.16136,0 1.90146,0.4212698 2.22025,1.2638398 l 0.13664,0.71731 m -3.24485,8.67595 c 0,-0.59206 -1.67373,-0.8881 -5.021266,-0.8881 -0.910881,0 -1.7192624,0.0342 -2.4251974,0.10247 l -0.819785,0.0683 c -1.2296774,0.1594 -1.8445164,0.38711 -1.8445164,0.68315 0,0.34158 0.307419,0.51237 0.922258,0.51237 l 4.1330568,-0.34158 4.09893,0.34158 c 0.63759,0 0.95641,-0.1594 0.95641,-0.47821 m 1.91283,0.81978 c -0.0455,1.54848 -2.36826,2.32273 -6.968064,2.32273 -4.5542738,0 -6.8656738,-0.77425 -6.9339358,-2.32273 -0.02277,-1.4574 -0.239104,-2.75537 -0.648997,-3.89387 -0.250489,-0.61484 -0.728689,-1.40046 -1.434623,-2.35688 -0.888101,-1.2069 -1.332151,-2.27719 -1.332151,-3.21072 0,-1.4574 0.626216,-2.5846098 1.878674,-3.3816398 0.705935,-0.45543 1.491562,-0.68315 2.356882,-0.68315 1.184142,0 2.311347,0.43267 3.3816394,1.29799 0,-1.04751 0.102473,-1.76482 0.30742,-2.1519405 0.159401,-0.43267 0.683154,-0.95641 1.5712544,-1.57125 v -0.78563 l -1.4004664,-0.85394 v -1.22968 h 1.2638354 l 0.409893,-1.26383 h 1.161362 l 0.44405,1.26383 h 1.229678 v 1.22968 l -1.366309,0.85394 v 0.78563 c 0.86532,0.63762 1.400466,1.18414 1.605413,1.63957 l 0.239104,0.9905705 c 0.02278,0.27326 0.04555,0.63762 0.06831,1.09305 1.070271,-0.86532 2.174721,-1.29799 3.313381,-1.29799 1.52569,0 2.70986,0.58068 3.5523,1.74204 0.4782,0.6831498 0.71731,1.4573998 0.71731,2.3227198 0,0.93364 -0.44405,2.01531 -1.33215,3.24485 l -0.78563,1.09305 c -0.84254,1.27521 -1.27521,2.98318 -1.29799,5.12366 M 3.1484232,11.63895 c 0,-0.95641 0.478208,-1.57125 1.434624,-1.8445098 0.273261,-0.0911 0.5579,-0.13664 0.853942,-0.13664 0.956416,0 1.867297,0.4326698 2.7326174,1.2979898 0.979197,1.00196 1.491562,2.36826 1.537097,4.09893 0.02278,0.50099 -0.500989,0.78563 -1.5712554,0.85394 h -0.512365 c -0.455427,0 -0.922258,-0.0342 -1.400466,-0.10247 -0.75147,-0.36436 -1.502939,-1.08167 -2.254409,-2.15194 -0.546523,-0.797 -0.819785,-1.46878 -0.819785,-2.0153"
       id="path1"
       style="stroke-width:0.264583" />
  </g>
</svg>
