<?xml version="1.0" encoding="UTF-8" standalone="no"?>
<!-- Created with Inkscape (http://www.inkscape.org/) -->

<svg
   width="22.698999mm"
   height="24.476mm"
   viewBox="0 0 22.699 24.475999"
   version="1.1"
   id="svg1"
   inkscape:version="1.3.2 (091e20e, 2023-11-25, custom)"
   sodipodi:docname="WhiteKing.svg"
   xmlns:inkscape="http://www.inkscape.org/namespaces/inkscape"
   xmlns:sodipodi="http://sodipodi.sourceforge.net/DTD/sodipodi-0.dtd"
   xmlns="http://www.w3.org/2000/svg"
   xmlns:svg="http://www.w3.org/2000/svg">
  <sodipodi:namedview
     id="namedview1"
     pagecolor="#ffffff"
     bordercolor="#000000"
     borderopacity="0.25"
     inkscape:showpageshadow="2"
     inkscape:pageopacity="0.0"
     inkscape:pagecheckerboard="0"
     inkscape:deskcolor="#d1d1d1"
     inkscape:document-units="mm"
     inkscape:zoom="2.9255612"
     inkscape:cx="-65.799342"
     inkscape:cy="55.544899"
     inkscape:window-width="1920"
     inkscape:window-height="1017"
     inkscape:window-x="-8"
     inkscape:window-y="-8"
     inkscape:window-maximized="1"
     inkscape:current-layer="layer1" />
  <defs
     id="defs1" />
  <g
     inkscape:label="Ebene 1"
     inkscape:groupmode="layer"
     id="layer1"
     transform="translate(-72.23125,-105.56879)">
    <path
       d="m 83.564504,129.03939 c -4.531519,0 -6.831542,-0.76285 -6.899804,-2.28857 -0.113861,-2.09499 -0.466831,-3.67771 -1.058889,-4.74795 -0.250489,-0.43267 -0.603462,-0.95641 -1.058889,-1.57125 -0.77425,-1.02473 -1.206897,-1.89005 -1.297993,-2.59599 -0.02277,-0.18217 -0.03416,-0.37573 -0.03416,-0.58068 0,-1.43462 0.603461,-2.56182 1.810358,-3.38164 0.296043,-0.18217 0.603462,-0.3302 0.922258,-0.44405 1.206897,-0.43267 2.402417,-0.36435 3.586427,0.20495 0.432674,0.20494 0.86532,0.47821 1.297993,0.81979 l 0.03416,0.0342 c 0,-0.47821 0.02277,-0.99058 0.06831,-1.5371 0,-0.15941 0.0797,-0.37573 0.239101,-0.649 0.364358,-0.59205 0.797005,-1.05888 1.297993,-1.40046 0.09109,-0.0455 0.182174,-0.10248 0.273262,-0.17079 v -0.81978 l -1.400466,-0.81979 V 107.8616 H 82.608 l 0.44405,-1.29799 h 1.024732 l 0.44405,1.29799 h 1.263835 v 1.22968 l -1.400466,0.81979 v 0.81978 c 1.184143,0.75147 1.787578,1.50294 1.810358,2.25441 0.04554,0.45543 0.06832,0.95641 0.06832,1.50294 l 0.03416,-0.0342 c 1.434624,-1.2069 2.937669,-1.59401 4.508765,-1.16136 0.409892,0.11385 0.797004,0.28463 1.161362,0.51236 1.275212,0.77422 1.924209,1.92421 1.946989,3.4499 0,0.91088 -0.455427,1.99253 -1.366308,3.24485 -0.75147,1.04752 -1.218301,1.81036 -1.400466,2.28857 -0.387112,1.02473 -0.614839,2.34548 -0.683154,3.9624 -0.04554,1.52572 -2.345505,2.28857 -6.899804,2.28857 m 0,-11.51123 0.990573,-1.57126 c 0.159404,-0.34157 0.284639,-0.66037 0.375735,-0.95641 0.04555,-0.1594 0.06832,-0.48959 0.06832,-0.99057 0,-1.34353 -0.466831,-2.01531 -1.400466,-2.01531 -0.97917,0 -1.468782,0.67178 -1.468782,2.01531 0,0.50098 0.02278,0.83116 0.06832,0.99057 0.182173,0.61484 0.569304,1.34353 1.161362,2.18609 0.136633,0.15941 0.204949,0.27326 0.204949,0.34158 m 9.120187,-0.0683 c 0,-1.02473 -0.341577,-1.81035 -1.024731,-2.35688 -0.569278,-0.47821 -1.241055,-0.71731 -2.015305,-0.71731 -0.97917,0 -2.038085,0.50096 -3.176588,1.50294 -1.343527,1.16136 -2.1064,2.73262 -2.288566,4.71382 0,0.1594 0.42127,0.34157 1.263835,0.54652 0.979197,0.18218 2.641521,0.27326 4.987131,0.27326 l 1.537097,-2.04946 c 0.478208,-0.72869 0.717312,-1.36631 0.717312,-1.91283 m -9.120187,4.61115 c -0.569304,0.2505 -2.299944,0.46684 -5.191919,0.649 -0.432673,0.0228 -0.785627,0.0455 -1.058889,0.0683 0.227722,0.86532 0.375735,1.82173 0.44405,2.86914 1.571255,-0.50099 3.506788,-0.75147 5.806811,-0.75147 2.345478,0 4.281223,0.25049 5.80681,0.75147 0.06831,-1.13858 0.216331,-2.095 0.44405,-2.86914 l -5.055393,-0.4099 c -0.432674,-0.0683 -0.831163,-0.17078 -1.19552,-0.30742 m -9.120188,-4.61115 c 0,0.70593 0.557901,1.7762 1.673728,3.21072 0.273262,0.34157 0.466831,0.59208 0.580681,0.75146 h 0.614839 c 2.345505,0 4.053416,-0.1594 5.123656,-0.4782 0.341577,-0.0911 0.512366,-0.20494 0.512366,-0.34158 -0.182177,-1.98115 -0.945039,-3.5523 -2.288567,-4.71382 -1.115827,-1.00195 -2.174716,-1.50294 -3.176587,-1.50294 -0.318797,0 -0.660374,0.0683 -1.024732,0.20495 -0.910881,0.22772 -1.525719,0.83116 -1.844516,1.81036 l -0.170788,0.92226 v 0.13663 m 9.120187,10.3497 c 2.140532,0 3.620823,-0.13663 4.440502,-0.40989 0.204946,-0.0683 0.30742,-0.14802 0.30742,-0.23911 0,-0.59206 -1.571255,-0.8881 -4.713817,-0.8881 -1.206897,0 -2.379636,0.0797 -3.518165,0.23911 -0.842565,0.13662 -1.263835,0.35295 -1.263835,0.64899 0,0.34158 1.343528,0.5579 4.030663,0.649 h 0.717311"
       id="path7"
       style="stroke-width:0.264583" />
  </g>
</svg>
