<?xml version="1.0" encoding="UTF-8" standalone="no"?>
<!-- Created with Inkscape (http://www.inkscape.org/) -->

<svg
   width="22.392mm"
   height="22.187mm"
   viewBox="0 0 22.392001 22.187"
   version="1.1"
   id="svg1"
   inkscape:version="1.3.2 (091e20e, 2023-11-25, custom)"
   sodipodi:docname="WhiteKnight.svg"
   xmlns:inkscape="http://www.inkscape.org/namespaces/inkscape"
   xmlns:sodipodi="http://sodipodi.sourceforge.net/DTD/sodipodi-0.dtd"
   xmlns="http://www.w3.org/2000/svg"
   xmlns:svg="http://www.w3.org/2000/svg">
  <sodipodi:namedview
     id="namedview1"
     pagecolor="#ffffff"
     bordercolor="#000000"
     borderopacity="0.25"
     inkscape:showpageshadow="2"
     inkscape:pageopacity="0.0"
     inkscape:pagecheckerboard="0"
     inkscape:deskcolor="#d1d1d1"
     inkscape:document-units="mm"
     inkscape:zoom="5.8511223"
     inkscape:cx="53.23765"
     inkscape:cy="73.062906"
     inkscape:window-width="1920"
     inkscape:window-height="1017"
     inkscape:window-x="-8"
     inkscape:window-y="-8"
     inkscape:window-maximized="1"
     inkscape:current-layer="layer1" />
  <defs
     id="defs1" />
  <g
     inkscape:label="Ebene 1"
     inkscape:groupmode="layer"
     id="layer1"
     transform="translate(-66.145827,-72.495833)">
    <path
       d="m 69.600584,85.616668 c 0.318796,0 0.478208,0.216331 0.478208,0.648997 0,0.569304 -0.284639,0.853942 -0.853943,0.853942 -0.227714,0 -0.341577,-0.182173 -0.341577,-0.546523 0,-0.637619 0.239101,-0.956416 0.717312,-0.956416 m 2.459355,-4.167187 c -0.318797,0 -0.478208,-0.193556 -0.478208,-0.580681 0,-0.614839 0.364357,-1.115801 1.093046,-1.50294 0.318797,-0.1594 0.614839,-0.239101 0.888101,-0.239101 0.478208,0 0.740092,0.159401 0.785627,0.478208 0,0.523743 -0.409892,1.024731 -1.229677,1.502939 -0.409893,0.227724 -0.762847,0.341577 -1.058889,0.341577 M 72.3332,75.027781 c 0.09109,0.318797 0.136628,0.535147 0.136628,0.648997 0,0.06832 -0.03415,0.250489 -0.102473,0.546523 0.364358,0 0.865347,-0.182173 1.50294,-0.546523 -0.614839,-0.318797 -1.127205,-0.535146 -1.537097,-0.648997 m -4.064794,11.750146 c 0.136633,0.546523 0.500988,0.945039 1.093047,1.19552 0.227719,0.09109 0.44405,0.136628 0.648996,0.136628 h 0.06832 c 0.04554,0 0.296042,-0.136628 0.75147,-0.409893 0.136628,-0.09109 0.250489,-0.136628 0.341577,-0.136628 h 0.136628 c 0.113858,0 0.170794,0.06831 0.170794,0.204941 l -0.204949,0.648997 c 0,0.204946 0.159401,0.307419 0.478208,0.307419 0.04554,0 0.3302,-0.398515 0.853943,-1.19552 1.00195,-1.548474 2.425197,-2.721239 4.269581,-3.518164 0.182171,-1.229678 0.637619,-2.311347 1.366308,-3.24485 0.182176,-0.250492 0.364358,-0.375735 0.546523,-0.375735 0.204949,0 0.30742,0.148016 0.30742,0.44405 0,0.06832 -0.204947,0.717312 -0.614839,1.94699 -0.159404,0.523742 -0.239107,0.910881 -0.239107,1.161362 0,0.06831 0.02278,0.216331 0.06832,0.44405 0,1.616789 -0.683154,3.313377 -2.049462,5.089525 -0.910881,1.229677 -1.411844,2.208874 -1.50294,2.937668 h 11.272044 c 0.09109,-1.047511 0.136634,-1.821735 0.136634,-2.322724 0,-4.691062 -1.468782,-8.437033 -4.406371,-11.237912 -0.888101,-0.819785 -1.605413,-1.229678 -2.151936,-1.229678 h -2.049462 c -0.182177,-0.09109 -0.364358,-0.546523 -0.546524,-1.366308 -0.136628,-0.660373 -0.307419,-1.070266 -0.512365,-1.229677 -0.273262,0.819785 -1.115828,1.457404 -2.527671,1.912831 -0.751469,0.227717 -1.275212,0.455428 -1.571254,0.683154 -0.250489,0.797005 -0.990574,2.413821 -2.220251,4.850342 -1.206897,2.413794 -1.844516,3.848365 -1.912832,4.303977 m 19.128317,6.899804 H 73.084463 c 0.09109,-1.571254 0.683155,-3.074194 1.776201,-4.508764 0.842566,-1.138582 1.343528,-1.833139 1.502939,-2.083621 0.318797,-0.500988 0.512366,-1.104423 0.580681,-1.810358 -1.480158,0.637593 -2.630143,1.548474 -3.449902,2.732617 l -0.478207,0.785627 c -0.341578,0.546523 -0.557901,0.853943 -0.648997,0.922258 -0.136628,0.113858 -0.284639,0.170789 -0.44405,0.170789 -0.705908,0 -1.184143,-0.239104 -1.434624,-0.717312 -0.04555,-0.06832 -0.06832,-0.148016 -0.06832,-0.239104 -0.227719,0.113858 -0.455427,0.170788 -0.683154,0.170788 -1.093047,0 -1.958367,-0.683154 -2.595986,-2.049462 0.182174,-1.001951 1.138582,-3.313377 2.869142,-6.933936 0.182176,-0.341577 0.318823,-0.614838 0.409892,-0.819785 0.683154,-1.525719 1.024731,-2.675731 1.024731,-3.449902 0,-0.113855 -0.06831,-0.751469 -0.204948,-1.912831 h 0.273261 c 1.229678,0 2.402417,0.387112 3.518165,1.161362 0.614839,-1.070266 1.127204,-1.605412 1.537097,-1.605412 0.728689,0.387111 1.229677,0.933635 1.502939,1.63957 l 0.375735,1.127204 c 0.227713,-0.04555 0.421269,-0.06832 0.580681,-0.06832 1.821735,0 3.620823,1.161363 5.39697,3.484034 2.072243,2.709862 3.108325,6.421702 3.108325,11.135518 0,1.070266 -0.04554,2.026682 -0.136628,2.869142"
       id="path11"
       style="stroke-width:0.264583" />
  </g>
</svg>
