<?xml version="1.0" encoding="UTF-8" standalone="no"?>
<!-- Created with Inkscape (http://www.inkscape.org/) -->

<svg
   width="22.5mm"
   height="22.200001mm"
   viewBox="0 0 22.5 22.200001"
   version="1.1"
   id="svg1"
   inkscape:version="1.3.2 (091e20e, 2023-11-25, custom)"
   sodipodi:docname="Knight.svg"
   xmlns:inkscape="http://www.inkscape.org/namespaces/inkscape"
   xmlns:sodipodi="http://sodipodi.sourceforge.net/DTD/sodipodi-0.dtd"
   xmlns="http://www.w3.org/2000/svg"
   xmlns:svg="http://www.w3.org/2000/svg">
  <sodipodi:namedview
     id="namedview1"
     pagecolor="#ffffff"
     bordercolor="#000000"
     borderopacity="0.25"
     inkscape:showpageshadow="2"
     inkscape:pageopacity="0.0"
     inkscape:pagecheckerboard="0"
     inkscape:deskcolor="#d1d1d1"
     inkscape:document-units="mm"
     inkscape:zoom="8.2747365"
     inkscape:cx="51.663276"
     inkscape:cy="32.569013"
     inkscape:window-width="1920"
     inkscape:window-height="1017"
     inkscape:window-x="-8"
     inkscape:window-y="-8"
     inkscape:window-maximized="1"
     inkscape:current-layer="layer1" />
  <defs
     id="defs1" />
  <g
     inkscape:label="Ebene 1"
     inkscape:groupmode="layer"
     id="layer1">
    <path
       d="m 5.6964116,9.0092082 c 0.5692775,0 1.1727392,-0.3302 1.8103585,-0.990573 0.3415771,-0.341577 0.5123656,-0.63762 0.5123656,-0.888101 0,-0.2960419 -0.2732616,-0.4440499 -0.8197849,-0.4440499 -0.637593,0 -1.1727392,0.284639 -1.6054123,0.8539429 -0.2277242,0.273262 -0.3415771,0.5579 -0.3415771,0.853943 0,0.409892 0.1480132,0.614838 0.4440502,0.614838 M 5.1157306,1.5286443 c 0.045545,0 0.1594008,-0.01139 0.341577,-0.03416 1.0247313,0 2.1177779,0.341578 3.2792458,1.024732 l 0.2049489,0.136628 c 0.6603736,-1.070266 1.1613617,-1.605412 1.5029387,-1.605412 0.728689,0.409892 1.206924,0.853942 1.434624,1.33215 0.113861,0.227722 0.284639,0.705935 0.512366,1.434624 0.182173,-0.04555 0.364357,-0.06831 0.546523,-0.06831 1.912832,0 3.734594,1.172739 5.465233,3.5181649 2.072243,2.709862 3.108325,6.3989478 3.108325,11.0669908 0,1.047512 -0.04554,1.992524 -0.136628,2.835011 H 6.9603844 c 0.045548,-1.52572 0.6034616,-2.9718 1.6737277,-4.338109 0.1138608,-0.182173 0.2732616,-0.387112 0.4782079,-0.614838 0.8425656,-1.070266 1.354931,-1.890051 1.537097,-2.459355 0.09108,-0.296016 0.159401,-0.603462 0.204946,-0.922258 -1.5029391,0.592058 -2.6301434,1.468781 -3.3816395,2.630143 -0.341577,0.569278 -0.7173118,1.161362 -1.1272043,1.776201 -0.1138608,0.182176 -0.2846388,0.273262 -0.5123656,0.273262 -0.569304,0 -0.8539427,-0.352955 -0.8539427,-1.058889 -0.2277243,0.296042 -0.489585,0.44405 -0.7856273,0.44405 L 3.5104294,16.728481 C 2.531233,16.477987 1.8367018,16.045327 1.4268089,15.430488 1.2901809,15.225545 1.1421709,14.95228 0.9827589,14.610703 1.1421649,13.631507 1.9277979,11.684412 3.3396409,8.7697622 4.3643721,6.6747643 5.0019915,5.1716933 5.2524725,4.2609973 c 0.022781,-0.204946 0.034155,-0.500962 0.034155,-0.8881 0,-0.318797 -0.05693,-0.933635 -0.1707886,-1.844516 M 3.0663765,13.51771 c -0.5465234,0 -0.9108811,0.239101 -1.0930467,0.717311 -0.045543,0.113859 -0.068315,0.227717 -0.068315,0.341578 0,0.09108 0.034155,0.204946 0.1024731,0.341577 0.5920581,0 0.9564159,-0.250489 1.0930467,-0.75147 0.022781,-0.06832 0.03416,-0.148021 0.03416,-0.239104 0,-0.04554 -0.022781,-0.182173 -0.068315,-0.409892 m 16.7714084,5.260181 v -1.263835 c 0,-3.71184 -0.945039,-6.751902 -2.835011,-9.1201878 -1.63957,-2.0494619 -3.131079,-3.0741939 -4.474633,-3.0741939 l -0.409892,-0.06831 c -0.04554,0.02277 -0.0797,0.04554 -0.102476,0.06831 -0.296016,0 -0.44405,0.125244 -0.44405,0.375735 0,0.09109 0.06832,0.204949 0.204943,0.341577 1.229678,0.113856 2.573205,0.990574 4.030663,2.6301439 1.844516,2.1405318 2.766748,5.2374268 2.766748,9.2908428 v 0.204949 c 0,1.001951 0.216328,1.50294 0.648996,1.50294 0.364358,0 0.569304,-0.296043 0.614839,-0.888101"
       id="path5"
       style="stroke-width:0.264583" />
  </g>
</svg>
