<?xml version="1.0" encoding="UTF-8" standalone="no"?>
<!-- Created with Inkscape (http://www.inkscape.org/) -->

<svg
   width="16.653999mm"
   height="22.084999mm"
   viewBox="0 0 16.653999 22.084999"
   version="1.1"
   id="svg1"
   inkscape:version="1.3.2 (091e20e, 2023-11-25, custom)"
   sodipodi:docname="WhitePawn.svg"
   xmlns:inkscape="http://www.inkscape.org/namespaces/inkscape"
   xmlns:sodipodi="http://sodipodi.sourceforge.net/DTD/sodipodi-0.dtd"
   xmlns="http://www.w3.org/2000/svg"
   xmlns:svg="http://www.w3.org/2000/svg">
  <sodipodi:namedview
     id="namedview1"
     pagecolor="#ffffff"
     bordercolor="#000000"
     borderopacity="0.25"
     inkscape:showpageshadow="2"
     inkscape:pageopacity="0.0"
     inkscape:pagecheckerboard="0"
     inkscape:deskcolor="#d1d1d1"
     inkscape:document-units="mm"
     inkscape:zoom="4"
     inkscape:cx="-9.375"
     inkscape:cy="68.375"
     inkscape:window-width="1920"
     inkscape:window-height="1017"
     inkscape:window-x="-8"
     inkscape:window-y="-8"
     inkscape:window-maximized="1"
     inkscape:current-layer="layer1" />
  <defs
     id="defs1" />
  <g
     inkscape:label="Ebene 1"
     inkscape:groupmode="layer"
     id="layer1"
     transform="translate(-91.545814,-119.85625)">
    <path
       d="m 105.96968,139.57435 c -3e-5,-2.39104 -0.64902,-4.17857 -1.94699,-5.36284 -0.4327,-0.40989 -0.96782,-0.797 -1.60541,-1.16136 -0.88813,-0.52375 -1.33218,-1.00195 -1.33215,-1.43463 -3e-5,-0.22772 0.22769,-0.4782 0.68315,-0.75147 0.70591,-0.38711 1.12718,-0.84256 1.26384,-1.3663 0.0455,-0.20494 0.0683,-0.45543 0.0683,-0.75147 -3e-5,-1.04752 -0.53517,-1.8673 -1.60541,-2.45936 l -0.61484,-0.44405 c -0.11389,-0.11385 -0.17082,-0.2391 -0.17079,-0.37573 -3e-5,-0.38712 0.1366,-0.77425 0.40989,-1.16137 0.18215,-0.25048 0.27324,-0.54652 0.27326,-0.8881 -2e-5,-0.59205 -0.31882,-1.02473 -0.95641,-1.29799 -0.20498,-0.0683 -0.40992,-0.10247 -0.614845,-0.10247 -0.637646,0 -1.093073,0.28464 -1.366308,0.85394 -0.09111,0.18218 -0.13666,0.36436 -0.136634,0.54652 -2.6e-5,0.20495 0.147995,0.59206 0.44405,1.16137 0.182148,0.31879 0.261848,0.61483 0.23911,0.8881 -3.7e-5,0.27326 -0.261911,0.54652 -0.785628,0.81978 -1.047538,0.61484 -1.571281,1.43463 -1.571254,2.45936 -3.5e-5,0.8881 0.444024,1.59403 1.33215,2.11777 0.432647,0.29602 0.64897,0.54653 0.648997,0.75147 -2.9e-5,0.43268 -0.444077,0.91088 -1.332151,1.43463 -1.63957,1.00195 -2.687108,2.22025 -3.142456,3.65495 -0.250489,0.79701 -0.375735,1.75342 -0.375735,2.86914 H 105.9698 m -13.389771,1.36631 c -0.02278,-0.27326 -0.03416,-0.797 -0.03416,-1.57125 0,-2.80088 0.819785,-4.89585 2.459355,-6.28492 0.546524,-0.45542 1.241029,-0.89947 2.083621,-1.33215 -0.86532,-0.27326 -1.446001,-0.93366 -1.742044,-1.98114 -0.113855,-0.34158 -0.170788,-0.69453 -0.170788,-1.05889 0,-1.5257 0.77425,-2.61877 2.322724,-3.27925 -0.364384,-0.6604 -0.54655,-1.30937 -0.546523,-1.94699 -2.9e-5,-1.04751 0.512339,-1.82173 1.537097,-2.32272 0.432646,-0.20495 0.899451,-0.30742 1.400466,-0.30742 1.161343,0 2.015283,0.44405 2.561833,1.33215 0.25046,0.38711 0.37571,0.81979 0.37573,1.29799 -2e-5,0.61484 -0.20497,1.26384 -0.61484,1.94699 1.57123,0.63762 2.35686,1.73064 2.35689,3.27925 -3e-5,1.20692 -0.44408,2.11778 -1.33215,2.73261 -0.1822,0.13664 -0.38714,0.23911 -0.61484,0.30742 2.04943,1.04752 3.38164,2.37967 3.99653,3.99654 0.38708,1.00195 0.58065,2.20887 0.58068,3.62082 -3e-5,0.75147 -0.0114,1.27521 -0.0342,1.57125 H 92.580034"
       id="path12"
       style="stroke-width:0.264583" />
  </g>
</svg>
