<?xml version="1.0" encoding="UTF-8" standalone="no"?>
<!-- Created with Inkscape (http://www.inkscape.org/) -->

<svg
   width="25.709999mm"
   height="24.073999mm"
   viewBox="0 0 25.71 24.073997"
   version="1.1"
   id="svg1"
   inkscape:version="1.3.2 (091e20e, 2023-11-25, custom)"
   sodipodi:docname="Queen.svg"
   xmlns:inkscape="http://www.inkscape.org/namespaces/inkscape"
   xmlns:sodipodi="http://sodipodi.sourceforge.net/DTD/sodipodi-0.dtd"
   xmlns="http://www.w3.org/2000/svg"
   xmlns:svg="http://www.w3.org/2000/svg">
  <sodipodi:namedview
     id="namedview1"
     pagecolor="#ffffff"
     bordercolor="#000000"
     borderopacity="0.25"
     inkscape:showpageshadow="2"
     inkscape:pageopacity="0.0"
     inkscape:pagecheckerboard="0"
     inkscape:deskcolor="#d1d1d1"
     inkscape:document-units="mm"
     inkscape:zoom="2"
     inkscape:cx="32.5"
     inkscape:cy="58.25"
     inkscape:window-width="1920"
     inkscape:window-height="1017"
     inkscape:window-x="-8"
     inkscape:window-y="-8"
     inkscape:window-maximized="1"
     inkscape:current-layer="layer1" />
  <defs
     id="defs1" />
  <g
     inkscape:label="Ebene 1"
     inkscape:groupmode="layer"
     id="layer1">
    <path
       d="m 7.2230037,19.485369 c 0,0.364358 0.261874,0.546523 0.785627,0.546523 l 2.3568813,-0.170788 2.049462,-0.102473 h 0.512366 l 3.996531,0.204949 0.819785,0.06831 c 0.523716,0 0.785601,-0.182173 0.785627,-0.546523 -2.6e-5,-0.660374 -1.525746,-1.024731 -4.577027,-1.093047 h -1.058889 c -2.573231,0 -4.2925993,0.193564 -5.1577863,0.580681 -0.341577,0.136634 -0.512366,0.30742 -0.512366,0.512366 M 2.9536337,5.2073938 c -0.432673,0 -0.705935,0.216337 -0.819785,0.648997 -0.02278,0.06832 -0.03416,0.136628 -0.03416,0.204949 0,0.432673 0.216336,0.705934 0.648996,0.819785 0.06831,0.02277 0.136628,0.03416 0.204946,0.03416 0.546524,0 0.819785,-0.284639 0.819785,-0.853943 0,-0.569304 -0.273261,-0.853943 -0.819785,-0.853943 m 4.474634,-2.151935 c -0.592058,0 -0.888101,0.284639 -0.888101,0.853943 0,0.569304 0.296016,0.853942 0.888101,0.853942 0.546523,0 0.819785,-0.284638 0.819785,-0.853942 0,-0.569304 -0.273262,-0.853943 -0.819785,-0.853943 m 10.8963343,0 c -0.387138,0 -0.649023,0.193564 -0.785627,0.580681 l -0.03416,0.273262 c -2.6e-5,0.569304 0.273236,0.853942 0.819785,0.853942 0.569278,0 0.853917,-0.284638 0.853943,-0.853942 2.7e-5,-0.569304 -0.284665,-0.853943 -0.853943,-0.853943 m 4.440502,2.151935 c -0.546549,0 -0.819811,0.284639 -0.819785,0.853943 2.7e-5,0.569304 0.273236,0.853943 0.819785,0.853943 0.569278,0 0.853917,-0.284639 0.853943,-0.853943 -3.4e-5,-0.432673 -0.216363,-0.705935 -0.648996,-0.819785 -0.06834,-0.02277 -0.13666,-0.03416 -0.204947,-0.03416 M 20.305744,21.534834 c -2.9e-5,0.63762 -1.172765,1.08167 -3.518164,1.332151 l -3.313377,0.204941 h -0.614839 c -2.778125,0 -4.8958493,-0.239102 -6.3534383,-0.717312 -0.705935,-0.204949 -1.058889,-0.478208 -1.058889,-0.819785 0,-0.660374 0.182173,-1.411843 0.546523,-2.254409 0.250489,-0.500988 0.375735,-0.853943 0.375735,-1.058889 0,-0.432673 -0.523743,-1.275239 -1.571255,-2.52767 -0.569304,-0.660374 -0.899477,-1.115827 -0.990573,-1.366309 0,-0.136628 -0.06832,-0.44405 -0.204949,-0.922258 l -0.44405,-1.707885 C 2.8624517,10.581582 2.6688827,9.3974648 2.5777867,8.1451128 1.5302747,7.7124398 1.0065318,7.0179088 1.0065318,6.0614928 c 0,-0.819785 0.3757349,-1.400466 1.1272039,-1.742043 0.250489,-0.113864 0.523743,-0.170794 0.819785,-0.170794 0.75147,0 1.30937,0.341577 1.673728,1.024731 0.159406,0.296016 0.239107,0.592058 0.239107,0.888101 l -0.170789,1.297993 c 0,1.024731 0.728689,2.277189 2.186093,3.7573472 0.113856,-0.933635 0.170789,-1.9128312 0.170789,-2.9376682 0,-1.525694 -0.273262,-2.493513 -0.819785,-2.903273 -0.04554,-0.04555 -0.09109,-0.0797 -0.136628,-0.102473 -0.409893,-0.250492 -0.614839,-0.694531 -0.614839,-1.332151 0,-0.842565 0.387112,-1.423246 1.161362,-1.742043 0.250494,-0.113858 0.512366,-0.170788 0.785627,-0.170788 0.797005,0 1.366309,0.364357 1.707886,1.093046 0.136628,0.250494 0.204914,0.523743 0.204946,0.819785 l -0.239107,1.468782 c 0,1.275212 0.62619,3.222095 1.8786733,5.8409412 0.478182,-2.1405582 0.717286,-3.7801022 0.717312,-4.9186042 -2.6e-5,-0.956416 -0.17082,-1.833139 -0.512365,-2.630143 -0.136663,-0.296043 -0.204976,-0.523743 -0.204949,-0.683155 -2.7e-5,-0.842565 0.375708,-1.423246 1.127204,-1.742043 0.25046,-0.113855 0.512339,-0.170788 0.785627,-0.170788 0.796978,0 1.354879,0.375735 1.673728,1.127204 0.113829,0.250489 0.170762,0.512366 0.170789,0.785627 -2.7e-5,0.04554 -0.193588,0.648997 -0.580681,1.810359 -0.09112,0.296016 -0.13666,0.797004 -0.136634,1.502939 -2.6e-5,1.138582 0.239075,2.778125 0.717312,4.9186042 1.229651,-2.5959862 1.84449,-4.5428962 1.844516,-5.8409412 l -0.204946,-1.434624 v -0.03416 c -3.2e-5,-0.842566 0.387085,-1.423247 1.161362,-1.742044 0.25046,-0.113858 0.512339,-0.170788 0.785627,-0.170788 0.796978,0 1.366282,0.364358 1.707886,1.093047 0.136601,0.250494 0.204917,0.523742 0.204943,0.819785 -2.6e-5,0.637619 -0.204975,1.093046 -0.614838,1.366308 -0.637646,0.409892 -0.956443,1.411843 -0.956416,3.005931 -2.7e-5,1.001951 0.0569,1.9697702 0.170788,2.9035382 1.457352,-1.4801592 2.186067,-2.7326172 2.186094,-3.7573482 l -0.170789,-1.297993 c -2.6e-5,-0.797005 0.364331,-1.366309 1.093047,-1.707886 0.25046,-0.136628 0.523716,-0.204946 0.819785,-0.204946 0.819758,0 1.400439,0.364358 1.742043,1.093047 l 0.204946,0.648996 v 0.170789 c -2.6e-5,0.910854 -0.523769,1.605412 -1.571255,2.08362 -0.13666,1.571254 -0.523769,3.4954102 -1.161362,5.7726792 -0.04557,0.182176 -0.06834,0.318796 -0.06831,0.409893 -2.9e-5,0.159403 -0.170818,0.421269 -0.512366,0.785627 l -0.409892,0.512365 c -1.093073,1.252459 -1.639597,2.117778 -1.63957,2.595986 -2.7e-5,0.136628 0.273235,0.842566 0.819785,2.117778 0.09106,0.455427 0.136599,0.853943 0.136628,1.19552 M 12.893325,1.9970088 c -0.4327,0 -0.705961,0.216334 -0.819785,0.648996 -0.02281,0.06832 -0.03418,0.136629 -0.03415,0.204944 -2.9e-5,0.432673 0.216299,0.705935 0.648996,0.819785 0.06829,0.02277 0.136607,0.03416 0.204949,0.03416 0.546497,0 0.819759,-0.284638 0.819785,-0.853942 -3.2e-5,-0.409893 -0.193588,-0.683155 -0.580681,-0.819785 -0.06834,-0.02277 -0.148042,-0.03416 -0.239101,-0.03416 m 6.148387,13.3215062 c -2.6e-5,-0.728689 -2.049489,-1.093047 -6.148387,-1.093047 -4.1216783,0 -6.1825183,0.375735 -6.1825183,1.127205 0,0.318796 0.296016,0.478208 0.8881,0.478208 0.683155,0 1.537097,-0.05693 2.5618273,-0.170789 l 2.220251,-0.06831 h 0.546524 c 0.637566,0 1.84449,0.05692 3.620823,0.170789 l 1.673727,0.06831 c 0.546497,0 0.819759,-0.170789 0.819785,-0.512366"
       id="path2"
       style="stroke-width:0.264583" />
  </g>
</svg>
