<?xml version="1.0" encoding="UTF-8" standalone="no"?>
<!-- Created with Inkscape (http://www.inkscape.org/) -->

<svg
   width="25.671mm"
   height="24.066mm"
   viewBox="0 0 25.671 24.066"
   version="1.1"
   id="svg1"
   inkscape:version="1.3.2 (091e20e, 2023-11-25, custom)"
   sodipodi:docname="WhiteQueen.svg"
   xmlns:inkscape="http://www.inkscape.org/namespaces/inkscape"
   xmlns:sodipodi="http://sodipodi.sourceforge.net/DTD/sodipodi-0.dtd"
   xmlns="http://www.w3.org/2000/svg"
   xmlns:svg="http://www.w3.org/2000/svg">
  <sodipodi:namedview
     id="namedview1"
     pagecolor="#ffffff"
     bordercolor="#000000"
     borderopacity="0.25"
     inkscape:showpageshadow="2"
     inkscape:pageopacity="0.0"
     inkscape:pagecheckerboard="0"
     inkscape:deskcolor="#d1d1d1"
     inkscape:document-units="mm"
     inkscape:zoom="11.702245"
     inkscape:cx="47.042257"
     inkscape:cy="91.136362"
     inkscape:window-width="1920"
     inkscape:window-height="1017"
     inkscape:window-x="-8"
     inkscape:window-y="-8"
     inkscape:window-maximized="1"
     inkscape:current-layer="layer1" />
  <defs
     id="defs1" />
  <g
     inkscape:label="Ebene 1"
     inkscape:groupmode="layer"
     id="layer1"
     transform="translate(-115.62288,-49.477079)">
    <path
       d="m 127.68446,64.874726 h 1.50293 c 0.34155,0 0.75145,0.01138 1.22968,0.03415 l 3.38164,0.204949 h 0.0342 c 0.40987,0 0.61481,-0.05693 0.61484,-0.170788 v -0.136634 c -3e-5,-0.683154 -1.51434,-1.127204 -4.5429,-1.332151 -0.54655,-0.04555 -1.02475,-0.06832 -1.43462,-0.06832 -2.23165,0 -3.95102,0.227719 -5.15779,0.683155 -0.54652,0.20494 -0.81978,0.44405 -0.81978,0.717311 v 0.136634 c 0,0.113855 0.20495,0.170788 0.61484,0.170788 l 4.57702,-0.239101 m 6.31905,1.537097 c -1.79901,-0.227716 -3.64358,-0.341577 -5.5335,-0.341577 -1.98117,0 -3.82561,0.113861 -5.53349,0.341577 0.27326,0.227716 0.40989,0.671777 0.40989,1.332151 0,0.432673 -0.0683,0.694531 -0.20494,0.785627 1.36631,-0.250489 3.14245,-0.375735 5.32871,-0.375735 2.18625,0 3.96213,0.125246 5.3287,0.375735 -0.13666,-0.09109 -0.20497,-0.352954 -0.20494,-0.785627 -3e-5,-0.6604 0.1366,-1.104424 0.40989,-1.332151 m -5.5335,2.937669 c -1.16139,0 -2.45938,0.05693 -3.89387,0.170791 -1.11583,0.09108 -1.67373,0.352954 -1.67373,0.785627 0,0.569278 1.85589,0.853943 5.56763,0.853943 3.71173,0 5.56763,-0.284639 5.56763,-0.853943 -3e-5,-0.182176 -0.14805,-0.352954 -0.44405,-0.512365 -0.86535,-0.296043 -2.57324,-0.444051 -5.12366,-0.444051 m 0,-17.864402 c -0.56933,0 -0.85397,0.273262 -0.85394,0.819785 -4e-5,0.592059 0.28461,0.888101 0.85394,0.888101 0.5465,0 0.81976,-0.296042 0.81978,-0.888101 -2e-5,-0.546523 -0.27328,-0.819785 -0.81978,-0.819785 m 0,-0.990573 c 0.81976,0 1.38906,0.375735 1.70788,1.127204 l 0.17079,0.683154 v 0.102476 c -3e-5,0.136628 -0.0911,0.42127 -0.27326,0.853943 -0.31882,0.933635 -0.47823,1.742043 -0.47821,2.425197 -2e-5,1.115827 0.25047,2.766748 0.75147,4.953 1.22965,-2.595986 1.84449,-4.554273 1.84452,-5.875073 l -0.20494,-1.468781 c -4e-5,-0.797005 0.35292,-1.366308 1.05888,-1.707886 0.25046,-0.136628 0.52372,-0.204941 0.81979,-0.204941 0.81976,0 1.40044,0.364332 1.74204,1.093047 0.13661,0.273262 0.20493,0.546523 0.20495,0.819785 -2e-5,0.592058 -0.20497,1.058889 -0.61484,1.400466 -0.61486,0.614839 -0.93366,1.616789 -0.95641,3.005931 -3e-5,0.592085 0.0569,1.548474 0.17079,2.869142 1.48013,-1.52572 2.22022,-2.766748 2.22025,-3.723217 l -0.17079,-1.33215 c -3e-5,-0.75147 0.34155,-1.30937 1.02473,-1.673728 0.27324,-0.159406 0.55788,-0.239109 0.85394,-0.239109 0.77423,0 1.35488,0.352954 1.74205,1.058889 l 0.20495,0.648996 v 0.204941 c -3e-5,0.933662 -0.52377,1.63957 -1.57126,2.117778 -0.0456,0.979196 -0.42132,2.903273 -1.1272,5.772679 -0.0456,0.136634 -0.0797,0.261874 -0.10248,0.375735 -3e-5,0.318796 -0.36438,0.86532 -1.09304,1.63957 -0.97923,0.979196 -1.46881,1.742043 -1.46879,2.288566 -2e-5,0.250487 0.27324,0.922258 0.81979,2.015305 0.0911,0.204949 0.1366,0.512366 0.13663,0.922258 v 0.239102 c -0.0228,0.06831 -0.0342,0.148015 -0.0342,0.239101 v 0.03416 l 0.0342,0.03415 c -3e-5,0.819785 -2.1975,1.275213 -6.59236,1.366309 h -0.85394 l -1.43463,-0.03416 h -0.0342 c -2.14058,-0.06832 -3.76872,-0.250489 -4.88447,-0.546523 -0.70594,-0.204941 -1.05889,-0.466805 -1.05889,-0.785628 0.0228,-0.02278 0.0228,-0.159401 0,-0.409892 -0.0228,-0.04554 -0.0228,-0.09109 0,-0.136628 0,-0.523743 0.17079,-1.127205 0.51237,-1.810359 0.27326,-0.546523 0.40989,-0.922258 0.40989,-1.127204 0,-0.364358 -0.19356,-0.797005 -0.58068,-1.297993 l -1.67373,-1.912832 c -0.18217,-0.250489 -0.27326,-0.489585 -0.27326,-0.717312 -0.70594,-2.891896 -1.10443,-4.770702 -1.19552,-5.635889 -0.0228,-0.182176 -0.0342,-0.352954 -0.0342,-0.512366 -1.04751,-0.478208 -1.57125,-1.184116 -1.57125,-2.117778 0,-0.751469 0.34157,-1.30937 1.02473,-1.673727 0.29604,-0.159407 0.59208,-0.23911 0.8881,-0.23911 0.797,0 1.36631,0.364358 1.70788,1.093047 0.13663,0.250489 0.20494,0.523743 0.20494,0.819785 l -0.17078,1.332151 c 0,1.00195 0.72868,2.243031 2.18609,3.723216 0.11386,-1.00195 0.17079,-1.958366 0.17079,-2.869141 0,-1.252432 -0.14802,-2.083621 -0.44405,-2.493513 -0.11386,-0.159401 -0.28464,-0.341577 -0.51237,-0.546523 -0.40989,-0.273262 -0.61484,-0.728689 -0.61484,-1.366309 0,-0.797004 0.37574,-1.377685 1.12721,-1.742043 0.25049,-0.113863 0.52374,-0.170788 0.81978,-0.170788 0.79701,0 1.36631,0.364331 1.70789,1.093046 0.1366,0.250489 0.20491,0.523743 0.20494,0.819785 l -0.20494,1.434624 v 0.03416 c 0,1.297993 0.61481,3.256491 1.84451,5.875073 0.47819,-2.072217 0.71729,-3.723217 0.71732,-4.953 -3e-5,-0.910855 -0.17082,-1.776201 -0.51237,-2.595986 -0.13665,-0.318797 -0.20497,-0.546524 -0.20494,-0.683154 -3e-5,-0.797005 0.3643,-1.366309 1.09305,-1.707886 0.25046,-0.136628 0.52371,-0.204941 0.81978,-0.204941 m 9.8716,4.201319 c -0.36438,0 -0.62624,0.182176 -0.78562,0.546523 -0.0228,0.09109 -0.0342,0.182171 -0.0342,0.273262 -3e-5,0.455427 0.20491,0.740092 0.61484,0.853943 0.0683,0.02278 0.1366,0.03415 0.20494,0.03415 0.56926,0 0.85392,-0.296043 0.85395,-0.888101 -3e-5,-0.546523 -0.28469,-0.819785 -0.85395,-0.819785 m -4.47463,-2.186093 c -0.38714,0 -0.64902,0.193561 -0.78563,0.580681 l -0.0342,0.273262 c -3e-5,0.409892 0.19353,0.683154 0.58068,0.819785 0.0683,0.02278 0.14799,0.03415 0.2391,0.03415 0.59203,0 0.88808,-0.284639 0.8881,-0.853943 3e-5,-0.569304 -0.29607,-0.853943 -0.8881,-0.853943 m -10.8622,0 c -0.56928,0 -0.85395,0.284639 -0.85395,0.853943 0,0.569304 0.28464,0.853943 0.85395,0.853943 0.54652,0 0.81978,-0.284639 0.81978,-0.853943 0,-0.569304 -0.27326,-0.853943 -0.81978,-0.853943 m -4.47464,2.186094 c -0.56927,0 -0.85394,0.273261 -0.85394,0.819785 0,0.592084 0.28464,0.8881 0.85394,0.8881 0.54653,0 0.81979,-0.296042 0.81979,-0.8881 0,-0.387112 -0.19356,-0.648997 -0.58068,-0.785628 -0.0683,-0.02278 -0.14802,-0.03416 -0.23911,-0.03416 m 9.93987,2.186094 c -0.31883,2.003901 -0.72872,3.449902 -1.22968,4.338108 l -0.51237,0.819785 v 0.03416 c -0.0683,-0.06832 -0.36438,-0.409892 -0.8881,-1.024731 -0.6604,-0.77425 -1.35493,-2.243032 -2.08362,-4.406371 0.0455,0.318797 0.0683,0.648997 0.0683,0.990574 0,1.070266 -0.19356,2.721239 -0.58068,4.953 -1.22968,-0.728689 -2.4252,-1.890051 -3.58643,-3.484034 0.38711,1.958367 0.68315,3.24485 0.8881,3.859742 0.13663,0.455427 0.30742,0.717312 0.51237,0.785627 1.86729,-1.070266 4.3381,-1.605412 7.4123,-1.605412 3.09694,0 5.56762,0.535146 7.4123,1.605412 0.40987,-0.136628 0.86529,-1.685104 1.36631,-4.645554 -1.18417,1.63957 -2.36829,2.800879 -3.5523,3.484034 -0.38714,-1.981148 -0.58071,-3.540919 -0.58068,-4.679686 -3e-5,-0.296042 0.0227,-0.717312 0.0683,-1.263835 -0.45545,1.366308 -0.97922,2.584582 -1.57125,3.654954 -0.31882,0.478208 -0.6718,0.933635 -1.05889,1.366308 -0.1822,0.182174 -0.29607,0.318797 -0.34158,0.409893 l -0.75147,-1.332151 c -0.0228,-0.09108 -0.057,-0.182173 -0.10246,-0.273261 -0.18221,-0.500989 -0.47824,-1.696509 -0.88811,-3.586427"
       id="path8"
       style="stroke-width:0.264583" />
  </g>
</svg>
