<?xml version="1.0" encoding="UTF-8" standalone="no"?>
<!-- Created with Inkscape (http://www.inkscape.org/) -->

<svg
   width="19.146999mm"
   height="22.049999mm"
   viewBox="0 0 19.146999 22.049999"
   version="1.1"
   id="svg1"
   inkscape:version="1.3.2 (091e20e, 2023-11-25, custom)"
   sodipodi:docname="WhiteRook.svg"
   xmlns:inkscape="http://www.inkscape.org/namespaces/inkscape"
   xmlns:sodipodi="http://sodipodi.sourceforge.net/DTD/sodipodi-0.dtd"
   xmlns="http://www.w3.org/2000/svg"
   xmlns:svg="http://www.w3.org/2000/svg">
  <sodipodi:namedview
     id="namedview1"
     pagecolor="#ffffff"
     bordercolor="#000000"
     borderopacity="0.25"
     inkscape:showpageshadow="2"
     inkscape:pageopacity="0.0"
     inkscape:pagecheckerboard="0"
     inkscape:deskcolor="#d1d1d1"
     inkscape:document-units="mm"
     inkscape:zoom="5.8511223"
     inkscape:cx="55.459446"
     inkscape:cy="56.313982"
     inkscape:window-width="1920"
     inkscape:window-height="1017"
     inkscape:window-x="-8"
     inkscape:window-y="-8"
     inkscape:window-maximized="1"
     inkscape:current-layer="layer1" />
  <defs
     id="defs1" />
  <g
     inkscape:label="Ebene 1"
     inkscape:groupmode="layer"
     id="layer1"
     transform="translate(-86.518752,-131.49792)">
    <path
       d="m 92.197395,139.29413 v 6.04599 H 99.9854 v -6.04599 h -7.788005 m -4.030662,13.25324 -0.648997,-0.64899 v -2.35688 l 3.484033,-3.51817 v -6.83154 l -3.005931,-2.63014 v -3.10833 l 0.990574,-0.95641 h 3.074193 l 0.580682,0.58068 v 0.8881 h 0.990573 v -0.8881 l 0.580681,-0.58068 h 3.757348 l 0.580681,0.58068 v 0.8881 h 0.956416 v -0.8881 l 0.614834,-0.58068 h 3.0742 l 0.99058,0.95641 v 3.10833 l -3.00593,2.63014 v 6.83154 l 3.48403,3.51817 v 2.35688 l -0.649,0.64899 H 88.166627 m 0.546523,-2.69848 v 1.33215 h 14.75608 v -1.33215 H 88.71315 m 3.347508,-3.38164 -2.254408,2.18609 h 12.5701 l -2.25442,-2.18609 h -8.061325 m 2.732617,-12.53596 v 0.8881 l -0.512366,0.47821 h -2.220251 l -0.512365,-0.47821 v -0.95641 h -1.912832 l -0.44405,0.4782 v 1.91284 l 2.322724,1.87867 h 9.154318 l 2.32273,-1.87867 v -1.91284 l -0.44405,-0.4782 h -1.91283 v 0.95641 l -0.51237,0.47821 h -2.220254 l -0.512365,-0.47821 v -0.8881 h -2.595986"
       id="path9"
       style="stroke-width:0.264583" />
  </g>
</svg>
